<?xml version="1.0" encoding="utf-8"?>
<!-- Generator: Adobe Illustrator 21.1.0, SVG Export Plug-In . SVG Version: 6.00 Build 0)  -->
<svg version="1.1" id="Layer_1" xmlns="http://www.w3.org/2000/svg" xmlns:xlink="http://www.w3.org/1999/xlink" x="0px" y="0px"
	 viewBox="0 0 600 46" style="enable-background:new 0 0 600 46;" xml:space="preserve">
<style type="text/css">
	.st0{fill:#949492;}
</style>
<title>logo</title>
<path class="st0" d="M29.8,10.6c-0.2-2.4-1.1-6.9-8.3-6.9h-9.7v17.7h9.7c4.3,0,4.4-3.3,4.4-5.3h1.5c-0.2,3.7-0.1,9.9,0,13.3h-1.5
	c0-3.6-0.5-5.6-4.2-5.6h-9.8v14.3c0,5.5,2.6,5.5,6,5.4v1.6c-4.8-0.1-7-0.1-9.2-0.1c-2.5,0-5.1,0.1-8.7,0.1v-1.6
	c3.6,0,6.1-0.1,6.1-5.4V7.7c0-4.3-2.9-4.4-6-4.4V1.8c8.9,0,13.2,0.1,16,0.1c4.3,0,8.5-0.1,14.6-0.1c0.1,3.6,0.2,5.1,0.2,8.7
	L29.8,10.6z"/>
<path class="st0" d="M68.2,0l12.3,34.8c2.7,7.5,3.7,9,6.6,9h1.3v1.5c-2.4-0.1-5.3-0.1-8.2-0.1s-5.7,0.1-7.9,0.1v-1.5H74
	c1.6,0,2.6-0.7,2.6-2.3c0-0.6-0.1-1.2-0.3-1.7L72.5,29H57.9l-0.6,1.5c-1.1,2.5-2.7,8.5-2.7,10.7c0,1.6,1.1,2.6,3.1,2.6h2.5v1.5
	c-3.5-0.1-5.4-0.1-7.3-0.1s-3.8,0.1-7.4,0.1v-1.5c3.5-0.1,5.1-0.9,7.6-7.9l9.6-26.6c0.8-2,1.1-4.2,0.9-6.4C65,2.2,66.2,1.2,67.2,0
	H68.2z M65.1,7.7H65l-6.3,18.9h13L65.1,7.7z"/>
<path class="st0" d="M119.8,3.3c-3.2,0-4.9,0.3-4.9,5.7v20.3c0,7.9,3.9,14.4,12.9,14.4c8.1,0,11.7-4.8,11.7-12.6V13.4
	c0-10.1-0.5-10.2-6.1-10.2V1.8c1.3,0,4.1,0.1,6.9,0.1s5.5-0.1,6.6-0.1v1.5c-3.3,0.1-4.4,1.3-4.4,8.1v19.5C142.5,43,133,46,125.6,46
	c-9.5,0-16.5-4.4-16.5-15.3v-23c0-4.2-1.5-4.4-4.5-4.4V1.8c1.3,0,4.4,0.1,7.5,0.1s6.1-0.1,7.7-0.1L119.8,3.3z"/>
<path class="st0" d="M185.6,3.3c-3.3,0-5.6,0.1-5.6,4.6V37c0,4.4,2,6,8.4,6c10.4,0,12.3-1.6,14.1-7.5l1.1,0.3
	c-0.9,4.8-1.1,5.1-2.1,9.5c-3.5-0.1-10.4-0.1-17.1-0.1s-13.3,0.1-16.2,0.1v-1.4c3.5,0,6.1-0.5,6.1-5.1V9.2c0-5.9-2.9-5.9-5.5-5.9
	V1.8c2.2,0,5.3,0.1,8.4,0.1s6-0.1,8.4-0.1L185.6,3.3z"/>
<path class="st0" d="M219.8,0.3c0.2,0.4,0.5,0.8,0.9,1c0.8,0.4,1.7,0.6,2.6,0.5h27.4c2.1,0,6.5,0,7.7-1.5h1.3
	c-0.1,5.1-0.3,7.3-0.4,9.2h-1.4c0-3.1-0.3-5.3-6-5.3h-10.3v29.6c0,10.1,1.1,10.1,6.1,10.1v1.5c-3,0-6.1-0.1-9.1-0.1
	s-5.9,0.1-8.9,0.1v-1.5c5.9-0.1,6.3-0.5,6.3-9.7v-30h-9.2c-6,0-6.9,2-7.6,5.3h-1.3c0.5-3,0.7-6.1,0.7-9.2L219.8,0.3z"/>
<path class="st0" d="M343.5,3.3c-3.1,0-5.3,0.1-5.3,3.9v32c0,4.3,2.4,4.6,5.3,4.6v1.5c-3.4-0.1-5.5-0.1-8.1-0.1s-5.5,0.1-8.3,0.1
	v-1.5c3.7,0,5.5-0.4,5.5-3.7V9.6c0-6.3-1.3-6.3-5.5-6.3V1.8c4.2,0.1,6.4,0.1,8.5,0.1s4.4-0.1,7.9-0.1V3.3z"/>
<path class="st0" d="M416,3.3c-3.8,0-5.9,0.3-5.9,8.6v33.2h-1.7L376.5,9.5v22.2c0,9.5,0.9,11.9,7.6,12.1v1.5
	c-1.9-0.1-5.3-0.1-8.4-0.1s-5.9,0.1-7.9,0.1l0.1-1.5c5.5-0.1,6.3-1.8,6.3-9.1V8.9c0-5.5-5.5-5.6-7.5-5.6V1.8
	c2.3,0.1,3.9,0.1,5.4,0.1c1.8,0,3.4-0.1,5.4-0.1c4.5,5.1,5.1,5.9,7.3,8.3l23,25.8V12.1c0-7.9-2.3-8.7-7.3-8.8V1.8
	c1.9,0,5,0.1,7.9,0.1s5.7-0.1,7.6-0.1L416,3.3z"/>
<path class="st0" d="M446.2,1.9c3.3,0,8.7-0.1,12-0.1c13.2,0,23,9.9,23,21.6c0.1,8.6-5.1,16.4-13,19.6c-4.9,2.1-11.3,2.2-14.4,2.2
	c-4.1,0-7.7-0.1-9-0.1c-3,0-5.7,0.1-7.3,0.1v-1.4c3.7,0,5.9-0.4,5.9-5.8V7.9c0-4.3-3-4.6-5.7-4.6V1.8C439.6,1.8,444.3,1.9,446.2,1.9
	z M449.1,37.8c0,4.1,1.7,5.7,7.5,5.7c6.2,0,10.7-2.4,13.7-6.1c3-3.8,4.5-8.5,4.4-13.4c0.1-5.2-1.8-10.3-5.2-14.2
	c-3.4-3.8-8.5-6.2-15.1-6.2c-1.8,0-3.5,0.1-5.3,0.4L449.1,37.8z"/>
<path class="st0" d="M532,10.7c-0.4-5.1-4-7-9.1-7h-8.6v17.7h9.5c4,0,4.2-2.9,4.3-5.3h1.5c-0.1,6.2-0.1,6.9,0,13.4H528
	c0-3.5-0.1-5.7-5.1-5.7h-8.6v13.6c0,5.1,3.2,5.8,7.1,5.8c2.3,0,8.7-0.1,10.7-0.9c2.6-1.2,3.7-3.5,5-6.2l1.1,0.2
	c-0.7,2.7-1,4-2.1,8.9c-5.9,0-11.3-0.1-16.5-0.1c-5.5,0-11.1,0.1-16.5,0.1v-1.5c3.4,0,5.6-0.9,5.6-5.7V7.9c0-4.3-2.1-4.6-5.6-4.6
	V1.8c4.8,0,10.3,0.1,14.8,0.1s8.2-0.1,15.1-0.1c0.2,5.1,0.2,6.2,0.2,8.8L532,10.7z"/>
<path class="st0" d="M571.5,3.3c-1.9,0-4,0-4,1.3c0.2,1,0.7,2,1.3,2.8l9.1,11.9l7.9-10.2c0.8-1,2.1-2.9,2.1-4.1
	c0-1.7-2.3-1.7-4.1-1.7V1.8c1.3,0,4.5,0.1,7.5,0.1s6.1-0.1,7.3-0.1v1.5c-3.3,0-5.3,0.1-9.3,5.1l-10.2,12.9l11.9,15.5
	c5.3,6.9,6.8,7,8.9,7.1v1.5c-1.1,0-4.5-0.1-8-0.1s-6.9,0.1-7.9,0.1v-1.5c1.4,0,3.6-0.1,3.6-1.3c-0.1-0.9-0.5-1.7-1.1-2.4l-10.8-14.2
	L566,38.6c-0.1,0.3-1.7,2.3-1.7,3.5c0,1.7,2.4,1.7,4.7,1.7v1.5c-1.8-0.1-4.9-0.1-7.9-0.1s-5.6,0.1-7.1,0.1v-1.5c2.4,0,5-0.1,9.4-5.8
	l10.9-14.1l-12-15.7c-3.4-4.4-4.7-4.9-7.8-4.9V1.8c1.5,0,4.9,0.1,8.3,0.1s7-0.1,8.7-0.1V3.3z"/>
</svg>
